<svg xmlns="http://www.w3.org/2000/svg" xmlns:xlink="http://www.w3.org/1999/xlink" width="86.076" height="86.076" viewBox="0 0 86.076 86.076"><defs><style>.a{fill:url(#a);}.b,.f{fill:none;}.b{stroke:#0fe;stroke-width:3px;}.c{fill:url(#f);}.d{fill:url(#i);}.e{stroke:none;}.g{filter:url(#s);}.h{filter:url(#p);}.i{filter:url(#m);}.j{filter:url(#j);}.k{filter:url(#g);}.l{filter:url(#d);}.m{filter:url(#b);}</style><linearGradient id="a" x1="0.324" y1="0.801" x2="0.848" y2="0.109" gradientUnits="objectBoundingBox"><stop offset="0" stop-color="#8666d5"/><stop offset="1" stop-color="#0fe"/></linearGradient><filter id="b" x="0" y="0" width="86.076" height="86.076" filterUnits="userSpaceOnUse"><feOffset input="SourceAlpha"/><feGaussianBlur stdDeviation="5.5" result="c"/><feFlood flood-opacity="0.412"/><feComposite operator="in" in2="c"/><feComposite in="SourceGraphic"/></filter><filter id="d" x="5" y="7" width="76.076" height="76.076" filterUnits="userSpaceOnUse"><feOffset dy="2" input="SourceAlpha"/><feGaussianBlur stdDeviation="1.5" result="e"/><feFlood flood-opacity="0.11"/><feComposite operator="in" in2="e"/><feComposite in="SourceGraphic"/></filter><linearGradient id="f" x1="0.41" y1="0.669" x2="0.848" y2="0.109" gradientUnits="objectBoundingBox"><stop offset="0" stop-color="#8666d5"/><stop offset="1" stop-color="#16b5d9"/></linearGradient><filter id="g" x="12" y="14" width="62.076" height="62.076" filterUnits="userSpaceOnUse"><feOffset dy="2" input="SourceAlpha"/><feGaussianBlur stdDeviation="1.5" result="h"/><feFlood flood-opacity="0.412"/><feComposite operator="in" in2="h"/><feComposite in="SourceGraphic"/></filter><linearGradient id="i" x1="0.5" x2="0.5" y2="1.831" gradientUnits="objectBoundingBox"><stop offset="0" stop-color="#fff"/><stop offset="1" stop-color="#d6bb88"/></linearGradient><filter id="j" x="16.519" y="37.393" width="36.792" height="33.65" filterUnits="userSpaceOnUse"><feOffset dy="2" input="SourceAlpha"/><feGaussianBlur stdDeviation="4" result="k"/><feFlood flood-opacity="0.161"/><feComposite operator="in" in2="k"/><feComposite in="SourceGraphic"/></filter><filter id="m" x="16.519" y="18.093" width="36.792" height="39.934" filterUnits="userSpaceOnUse"><feOffset dy="2" input="SourceAlpha"/><feGaussianBlur stdDeviation="4" result="n"/><feFlood flood-opacity="0.161"/><feComposite operator="in" in2="n"/><feComposite in="SourceGraphic"/></filter><filter id="p" x="32.677" y="18.093" width="36.792" height="33.65" filterUnits="userSpaceOnUse"><feOffset dy="2" input="SourceAlpha"/><feGaussianBlur stdDeviation="4" result="q"/><feFlood flood-opacity="0.161"/><feComposite operator="in" in2="q"/><feComposite in="SourceGraphic"/></filter><filter id="s" x="32.677" y="30.885" width="36.792" height="40.158" filterUnits="userSpaceOnUse"><feOffset dy="2" input="SourceAlpha"/><feGaussianBlur stdDeviation="4" result="t"/><feFlood flood-opacity="0.161"/><feComposite operator="in" in2="t"/><feComposite in="SourceGraphic"/></filter></defs><g transform="translate(-316.506 -244.7)"><g class="m" transform="matrix(1, 0, 0, 1, 316.51, 244.7)"><circle class="a" cx="26.538" cy="26.538" r="26.538" transform="translate(16.5 16.5)"/></g><g class="l" transform="matrix(1, 0, 0, 1, 316.51, 244.7)"><g class="b" transform="translate(12.5 12.5)"><circle class="e" cx="30.538" cy="30.538" r="30.538"/><circle class="f" cx="30.538" cy="30.538" r="32.038"/></g></g><g transform="translate(224 -120)"><g class="k" transform="matrix(1, 0, 0, 1, 92.51, 364.7)"><circle class="c" cx="26.538" cy="26.538" r="26.538" transform="translate(16.5 16.5)"/></g><g class="j" transform="matrix(1, 0, 0, 1, 92.51, 364.7)"><rect class="d" width="12.792" height="9.65" rx="1" transform="translate(28.52 47.39)"/></g><g class="i" transform="matrix(1, 0, 0, 1, 92.51, 364.7)"><rect class="d" width="12.792" height="15.934" rx="1" transform="translate(28.52 28.09)"/></g><g class="h" transform="matrix(1, 0, 0, 1, 92.51, 364.7)"><rect class="d" width="12.792" height="9.65" rx="1" transform="translate(44.68 28.09)"/></g><g class="g" transform="matrix(1, 0, 0, 1, 92.51, 364.7)"><rect class="d" width="12.792" height="16.158" rx="1" transform="translate(44.68 40.88)"/></g></g></g></svg>